# Blender 4.1.0
# www.blender.org
mtllib goal.mtl
o Goal
v 4.830663 5.097660 -1.941677
v -4.830673 5.097660 -1.941677
v 4.830663 5.097660 -1.741677
v -4.830673 5.097660 -1.741677
v 4.830663 5.297659 -1.941677
v -4.830673 5.297660 -1.941677
v 4.830663 5.297659 -1.741677
v -4.830673 5.297660 -1.741677
v -4.697284 5.000000 1.169482
v -4.697284 -0.000000 1.169482
v -4.697284 5.000000 1.469482
v -4.697284 -0.000000 1.469482
v -4.997284 5.000000 1.169482
v -4.997284 -0.000000 1.169482
v -4.997284 5.000000 1.469482
v -4.997284 -0.000000 1.469482
v 4.697275 4.999999 1.169482
v 4.697275 -0.000001 1.169482
v 4.697275 4.999999 1.469482
v 4.697275 -0.000001 1.469482
v 4.997275 4.999999 1.169482
v 4.997275 -0.000001 1.169482
v 4.997275 4.999999 1.469482
v 4.997275 -0.000001 1.469482
v 4.999996 4.999637 1.174704
v -5.000004 4.999637 1.174704
v 4.999996 4.999637 1.474704
v -5.000004 4.999637 1.474704
v 4.999996 5.299637 1.174704
v -5.000004 5.299637 1.174704
v 4.999996 5.299637 1.474704
v -5.000004 5.299637 1.474704
v -4.760109 0.257717 -2.826033
v -4.760109 0.257716 1.173966
v -4.760109 0.057717 -2.826033
v -4.760109 0.057717 1.173966
v -4.960109 0.257717 -2.826033
v -4.960109 0.257716 1.173966
v -4.960109 0.057717 -2.826033
v -4.960109 0.057717 1.173966
v 4.760098 0.257716 -2.826033
v 4.760098 0.257715 1.173966
v 4.760098 0.057716 -2.826033
v 4.760098 0.057716 1.173966
v 4.960099 0.257716 -2.826033
v 4.960099 0.257715 1.173966
v 4.960099 0.057716 -2.826033
v 4.960099 0.057716 1.173966
v 4.830663 0.055668 -2.814999
v -4.830672 0.055668 -2.814999
v 4.830663 0.055668 -2.614999
v -4.830672 0.055668 -2.614999
v 4.830663 0.255668 -2.814999
v -4.830672 0.255668 -2.814999
v 4.830663 0.255668 -2.614999
v -4.830672 0.255668 -2.614999
v -4.760109 5.294978 -1.825105
v -4.760109 5.294978 1.174895
v -4.760109 5.094978 -1.825105
v -4.760109 5.094978 1.174895
v -4.960109 5.294978 -1.825105
v -4.960109 5.294978 1.174895
v -4.960109 5.094978 -1.825105
v -4.960109 5.094978 1.174895
v 4.760101 5.294978 -1.825105
v 4.760101 5.294978 1.174895
v 4.760101 5.094978 -1.825105
v 4.760101 5.094978 1.174895
v 4.960101 5.294978 -1.825105
v 4.960101 5.294978 1.174895
v 4.960101 5.094978 -1.825105
v 4.960101 5.094978 1.174895
v -4.759254 5.305192 -1.936020
v -4.759254 0.113123 -2.817244
v -4.759254 5.271672 -1.738530
v -4.759254 0.079604 -2.619753
v -4.959254 5.305192 -1.936020
v -4.959254 0.113123 -2.817244
v -4.959254 5.271672 -1.738530
v -4.959254 0.079604 -2.619753
v 4.759245 5.305191 -1.936020
v 4.759245 0.113123 -2.817244
v 4.759245 5.271672 -1.738530
v 4.759245 0.079604 -2.619753
v 4.959246 5.305191 -1.936020
v 4.959246 0.113123 -2.817244
v 4.959246 5.271672 -1.738530
v 4.959246 0.079604 -2.619753
vn 1.0000 -0.0000 -0.0000
vn -0.0000 -0.0000 1.0000
vn -0.0000 1.0000 -0.0000
vn -1.0000 -0.0000 -0.0000
vn -0.0000 -1.0000 -0.0000
vn -0.0000 -0.0000 -1.0000
vn -0.0000 0.9859 0.1673
vn -0.0000 -0.1673 0.9859
vn -0.0000 -0.9859 -0.1673
vn -0.0000 0.1673 -0.9859
vt 0.625000 0.500000
vt 0.875000 0.500000
vt 0.875000 0.750000
vt 0.625000 0.750000
vt 0.375000 0.750000
vt 0.625000 1.000000
vt 0.375000 1.000000
vt 0.375000 0.000000
vt 0.625000 0.000000
vt 0.625000 0.250000
vt 0.375000 0.250000
vt 0.125000 0.500000
vt 0.375000 0.500000
vt 0.125000 0.750000
s 0
usemtl Material
f 1/1/1 5/2/1 7/3/1 3/4/1
f 4/5/2 3/4/2 7/6/2 8/7/2
f 8/8/3 7/9/3 5/10/3 6/11/3
f 6/12/4 2/13/4 4/5/4 8/14/4
f 2/13/5 1/1/5 3/4/5 4/5/5
f 6/11/6 5/10/6 1/1/6 2/13/6
f 9/1/3 13/2/3 15/3/3 11/4/3
f 12/5/2 11/4/2 15/6/2 16/7/2
f 16/8/4 15/9/4 13/10/4 14/11/4
f 14/12/5 10/13/5 12/5/5 16/14/5
f 10/13/1 9/1/1 11/4/1 12/5/1
f 14/11/6 13/10/6 9/1/6 10/13/6
f 17/1/3 19/4/3 23/3/3 21/2/3
f 20/5/2 24/7/2 23/6/2 19/4/2
f 24/8/1 22/11/1 21/10/1 23/9/1
f 22/12/5 24/14/5 20/5/5 18/13/5
f 18/13/4 20/5/4 19/4/4 17/1/4
f 22/11/6 18/13/6 17/1/6 21/10/6
f 25/1/1 29/2/1 31/3/1 27/4/1
f 28/5/2 27/4/2 31/6/2 32/7/2
f 32/8/3 31/9/3 29/10/3 30/11/3
f 30/12/4 26/13/4 28/5/4 32/14/4
f 26/13/5 25/1/5 27/4/5 28/5/5
f 30/11/6 29/10/6 25/1/6 26/13/6
f 33/1/2 37/2/2 39/3/2 35/4/2
f 36/5/3 35/4/3 39/6/3 40/7/3
f 40/8/1 39/9/1 37/10/1 38/11/1
f 38/12/6 34/13/6 36/5/6 40/14/6
f 34/13/4 33/1/4 35/4/4 36/5/4
f 38/11/5 37/10/5 33/1/5 34/13/5
f 41/1/2 43/4/2 47/3/2 45/2/2
f 44/5/3 48/7/3 47/6/3 43/4/3
f 48/8/4 46/11/4 45/10/4 47/9/4
f 46/12/6 48/14/6 44/5/6 42/13/6
f 42/13/1 44/5/1 43/4/1 41/1/1
f 46/11/5 42/13/5 41/1/5 45/10/5
f 49/1/1 53/2/1 55/3/1 51/4/1
f 52/5/2 51/4/2 55/6/2 56/7/2
f 56/8/3 55/9/3 53/10/3 54/11/3
f 54/12/4 50/13/4 52/5/4 56/14/4
f 50/13/5 49/1/5 51/4/5 52/5/5
f 54/11/6 53/10/6 49/1/6 50/13/6
f 57/1/2 61/2/2 63/3/2 59/4/2
f 60/5/3 59/4/3 63/6/3 64/7/3
f 64/8/1 63/9/1 61/10/1 62/11/1
f 62/12/6 58/13/6 60/5/6 64/14/6
f 58/13/4 57/1/4 59/4/4 60/5/4
f 62/11/5 61/10/5 57/1/5 58/13/5
f 65/1/2 67/4/2 71/3/2 69/2/2
f 68/5/3 72/7/3 71/6/3 67/4/3
f 72/8/4 70/11/4 69/10/4 71/9/4
f 70/12/6 72/14/6 68/5/6 66/13/6
f 66/13/1 68/5/1 67/4/1 65/1/1
f 70/11/5 66/13/5 65/1/5 69/10/5
f 73/1/7 77/2/7 79/3/7 75/4/7
f 76/5/8 75/4/8 79/6/8 80/7/8
f 80/8/4 79/9/4 77/10/4 78/11/4
f 78/12/9 74/13/9 76/5/9 80/14/9
f 74/13/1 73/1/1 75/4/1 76/5/1
f 78/11/10 77/10/10 73/1/10 74/13/10
f 81/1/7 83/4/7 87/3/7 85/2/7
f 84/5/8 88/7/8 87/6/8 83/4/8
f 88/8/1 86/11/1 85/10/1 87/9/1
f 86/12/9 88/14/9 84/5/9 82/13/9
f 82/13/4 84/5/4 83/4/4 81/1/4
f 86/11/10 82/13/10 81/1/10 85/10/10
